<svg width="480" height="103" viewBox="0 0 480 103" fill="none" xmlns="http://www.w3.org/2000/svg">
<path id="Subtract" fill-rule="evenodd" clip-rule="evenodd" d="M51.5 0C23.0574 0 0 23.0573 0 51.5C0 79.9427 23.0574 103 51.5 103H428.5C456.943 103 480 79.9427 480 51.5C480 23.0573 456.943 0 428.5 0H51.5ZM133.919 51.096H142.175V44.888H133.919V23H126.495V80.024H133.919V51.096ZM93.4072 69.72C110.879 60.248 118.431 46.04 118.943 28.824H92.3193V35.032H110.815C109.791 46.424 101.279 58.392 88.8633 64.088L93.4072 69.72ZM261.482 41.432H269.61V35.288H261.482V23H253.93V53.272H261.482V41.432ZM248.746 44.248C242.922 45.4 234.538 45.912 226.218 45.912V32.408H244.202V26.456H218.794V51.928H224.362C234.858 51.928 244.202 51.224 249.578 49.944L248.746 44.248ZM224.554 79.32H261.482V56.152H253.994V62.04H231.978V56.28H224.554V79.32ZM253.994 67.8V73.368H231.978V67.8H253.994ZM305.145 42.52H272.057V36.568H305.145V42.52ZM280.057 32.6V26.712H297.657V32.6H280.057ZM316.921 23V46.104H324.857V52.312H316.921V80.024H309.369V23H316.921ZM274.873 56.792C274.873 49.816 280.441 44.504 288.633 44.504C296.825 44.504 302.393 49.624 302.393 56.792C302.393 63.768 296.825 69.08 288.633 69.08C280.441 69.08 274.873 64.024 274.873 56.792ZM282.169 56.792C282.169 60.504 284.857 63 288.633 63C292.793 63 295.097 60.504 295.097 56.792C295.097 53.016 292.345 50.52 288.633 50.52C284.921 50.52 282.169 53.016 282.169 56.792ZM367.367 80.024H374.855V23H367.367V80.024ZM331.847 69.72C349.255 60.248 356.871 46.168 357.319 28.952H330.695V35.16H349.255C348.231 46.488 339.719 58.392 327.239 64.088L331.847 69.72ZM445.508 51.8L406.979 27.416V76.056L445.508 51.8ZM213.083 48.9837V54.9357H161.562V48.9837H213.083ZM175.194 35.3517C175.194 38.4237 179.61 40.5997 187.291 40.5997C194.843 40.5997 199.515 38.4237 199.515 35.3517C199.515 32.2797 195.099 30.2317 187.291 30.2317C179.61 30.2317 175.194 32.2797 175.194 35.3517ZM167.515 35.3517C167.515 29.0797 174.619 24.4717 187.291 24.4717C200.09 24.4717 207.194 29.0797 207.194 35.3517C207.194 41.6877 200.091 46.2957 187.354 46.2957C174.619 46.2957 167.515 41.6877 167.515 35.3517ZM207.259 69.1437C207.259 75.6077 199.963 79.7037 187.354 79.7037C174.746 79.7037 167.45 75.6077 167.45 69.1437C167.45 62.6157 174.746 58.4557 187.291 58.4557C199.963 58.4557 207.259 62.6157 207.259 69.1437ZM199.515 69.2077C199.515 66.2637 194.779 64.4077 187.291 64.4077C179.931 64.4077 175.13 66.2637 175.13 69.2077C175.13 72.0877 179.931 73.7517 187.291 73.7517C194.779 73.7517 199.515 72.0877 199.515 69.2077ZM80.528 38.7437H64.272C66.448 44.1837 74.384 47.4476 82.96 48.2797L79.696 54.2957C72.72 53.7197 63.376 49.4316 59.792 43.8636C56.656 49.5596 47.632 53.6556 39.696 54.4236L36.496 48.4077C45.2 47.3837 53.264 44.2477 55.4399 38.7437H38.9919V32.7916H80.528V38.7437ZM63.376 79.9597H55.8879V62.9357H34V56.9836H85.52V62.9357H63.376V79.9597ZM50.448 29.5917V23.6396H69.0081V29.5917H50.448Z" fill="white"/>
</svg>
